Coordinates
version=1
nRows=19
nColumns=24
inDegrees=yes

Units are S.I. units (second, meters, Newtons, ...)
Angles are in degrees.

endheader
time	pelvis_tilt	pelvis_list	pelvis_rotation	pelvis_tx	pelvis_ty	pelvis_tz	hip_flexion_r	hip_adduction_r	hip_rotation_r	knee_angle_r	ankle_angle_r	subtalar_angle_r	mtp_angle_r	hip_flexion_l	hip_adduction_l	hip_rotation_l	knee_angle_l	ankle_angle_l	subtalar_angle_l	mtp_angle_l	lumbar_extension	lumbar_bending	lumbar_rotation
      4.76000000	     -3.16786280	     -6.99440925	    -10.46434643	      1.85068834	      0.67711334	     -0.31453272	    -18.78891666	     10.58971310	     14.86368481	    -14.15430122	     17.20514490	      2.19683580	      0.00000000	     23.45791215	     -7.01145171	     12.18849010	      4.27761345	      3.11477986	    -22.70043604	      0.00000000	    -20.83093012	      3.14860928	     10.02224274
      4.77000000	     -2.96984233	     -6.07351087	    -10.52083318	      1.86748787	      0.67653613	     -0.31538602	    -18.15267996	      9.29999404	     12.26688255	    -17.57101896	     16.32516003	      4.92145925	      0.00000000	     23.82261983	     -5.37158007	     12.98096591	      1.86803834	      1.98796999	    -24.05387264	      0.00000000	    -20.75222349	      1.97853349	      9.87158377
      4.78000000	     -2.68842087	     -4.87955963	    -10.50430763	      1.88430109	      0.67626759	     -0.31648669	    -17.18684384	      7.68038789	      9.67136358	    -21.48973333	     14.79823204	      7.08486241	      0.00000000	     24.36678848	     -3.28853876	     13.52354188	     -1.27848696	      0.69475733	    -25.23481992	      0.00000000	    -20.75209678	      0.51116816	      9.53160923
      4.79000000	     -2.31538476	     -3.47992595	    -10.41443937	      1.90110079	      0.67626293	     -0.31774784	    -15.97402615	      5.80435733	      7.30763184	    -25.78423312	     12.53974335	      8.51631403	      0.00000000	     25.03170428	     -0.87906119	     13.54086964	     -4.95545511	     -0.51599827	    -25.82071581	      0.00000000	    -20.84966357	     -1.18358441	      9.03768744
      4.80000000	     -1.85867601	     -1.98766815	    -10.29847254	      1.91782025	      0.67642605	     -0.31896933	    -14.56828921	      3.81406019	      5.32776386	    -30.35173006	      9.59062152	      9.05999783	      0.00000000	     25.70934580	      1.62846814	     12.97551583	     -8.86830514	     -1.41111382	    -25.76230417	      0.00000000	    -21.05135572	     -3.00108511	      8.40628620
      4.81000000	     -1.83299577	     -0.75217307	    -10.19042458	      1.93402533	      0.67616412	     -0.32026375	    -12.36108460	      2.13712882	      3.68748322	    -35.27052793	      6.06333614	      9.05247440	      0.00000000	     26.97044717	      3.71389986	     11.57878380	    -12.99413722	     -1.31249014	    -24.32549732	      0.00000000	    -20.85132960	     -4.35314867	      7.90571234
      4.82000000	     -1.63789713	      0.47667762	    -10.15156514	      1.95007779	      0.67616401	     -0.32110065	    -10.19202608	      0.50966224	      2.63396530	    -40.11271791	      2.27023924	      8.06014092	      0.00000000	     27.78808969	      5.58608947	     10.04384819	    -16.66579894	     -0.82625317	    -22.71945660	      0.00000000	    -20.82848480	     -5.83419535	      7.58761209
      4.83000000	     -1.61306764	      1.43477331	    -10.14674195	      1.96569397	      0.67615349	     -0.32183706	     -7.67572085	     -0.73370812	      2.02840081	    -44.87603694	     -1.56349998	      6.47217121	      0.00000000	     28.45027204	      6.99483340	      8.47505570	    -19.75011909	      0.06968021	    -21.27125923	      0.00000000	    -20.68388209	     -6.89751799	      7.15765233
      4.84000000	     -1.42908951	      2.41774730	    -10.27288710	      1.98113918	      0.67661355	     -0.32239356	     -5.19655502	     -2.00209528	      1.75820363	    -49.42321812	     -4.82020812	      4.63389484	      0.00000000	     28.38430519	      8.31367228	      7.26090543	    -21.86858752	      1.09971152	    -20.34208724	      0.00000000	    -20.66069936	     -8.02460908	      6.95979378
      4.85000000	     -1.59208704	      3.34219996	    -10.27008654	      1.99631196	      0.67695298	     -0.32301813	     -2.26170189	     -3.03423515	      1.70668490	    -53.75337777	     -7.03837454	      3.08805162	      0.00000000	     28.32035764	      9.46222324	      6.06306459	    -23.34542172	      2.67993724	    -19.05048560	      0.00000000	    -20.18784309	     -8.92967427	      6.54380072
      4.86000000	     -1.45086060	      4.23391951	    -10.38575142	      2.01132671	      0.67818836	     -0.32350549	      0.36652222	     -3.98709338	      1.96626571	    -57.64861302	     -8.21716342	      1.47927299	      0.00000000	     27.29608684	     10.60749591	      5.39581338	    -23.75469960	      4.08204489	    -18.51577643	      0.00000000	    -20.02817186	     -9.83546281	      6.21176190
      4.87000000	     -1.45645531	      5.06336940	    -10.39235317	      2.02617886	      0.67967178	     -0.32409245	      3.15268244	     -4.75697732	      2.30067777	    -61.16639287	     -8.14890875	      0.32378192	      0.00000000	     26.02410579	     11.69017055	      4.99497670	    -23.50188591	      5.59858475	    -17.86935490	      0.00000000	    -19.65344172	    -10.55814656	      5.80577288
      4.88000000	     -1.37721042	      5.73385782	    -10.21010765	      2.04097202	      0.68172687	     -0.32482632	      5.70678883	     -5.30054856	      2.52969642	    -64.11213119	     -7.02603545	     -0.66865874	      0.00000000	     24.22006256	     12.73221295	      5.26248403	    -22.61600466	      6.89525040	    -17.47349874	      0.00000000	    -19.39629022	    -11.03446075	      5.27532482
      4.89000000	     -1.39629548	      6.24047265	    -10.09928601	      2.05574694	      0.68411624	     -0.32541719	      8.31277009	     -5.55315204	      2.96231043	    -66.54657274	     -5.26098938	     -1.31633869	      0.00000000	     22.13998550	     13.55535398	      5.87902919	    -21.16998221	      7.93326067	    -17.32036506	      0.00000000	    -18.94830500	    -11.30651213	      4.87214757
      4.90000000	     -1.41753324	      6.53860165	     -9.91661538	      2.07052701	      0.68682903	     -0.32607014	     10.77079583	     -5.54662559	      3.31388619	    -68.37974288	     -3.05675075	     -1.86448371	      0.00000000	     19.72871856	     14.20804478	      7.22166221	    -19.28838337	      8.33624186	    -17.85532137	      0.00000000	    -18.50549446	    -11.30788579	      4.55761209
      4.91000000	     -1.31754757	      6.63912457	     -9.64660836	      2.08534300	      0.68988368	     -0.32671235	     12.92670440	     -5.33750877	      3.52111621	    -69.60886328	     -0.76921641	     -2.42950045	      0.00000000	     16.91561730	     14.66847606	      9.20592026	    -17.06525630	      8.08527822	    -19.06085434	      0.00000000	    -18.26098951	    -11.10775108	      4.11124700
      4.92000000	     -1.25114006	      6.47327535	     -9.27548859	      2.10020817	      0.69297141	     -0.32735182	     14.91296909	     -4.83826824	      3.56326850	    -70.24613010	      1.49029499	     -2.95755761	      0.00000000	     13.95456005	     14.78123503	     11.69593414	    -14.66692762	      7.34952322	    -20.79844509	      0.00000000	    -18.01080864	    -10.59764849	      3.74320371
      4.93000000	     -1.16807643	      6.06718204	     -9.00612363	      2.11492999	      0.69599810	     -0.32764541	     16.76164404	     -3.99845209	      3.66425864	    -70.38163697	      3.44963917	     -3.64222372	      0.00000000	     10.85492783	     14.48114822	     14.49463514	    -12.08590790	      6.05790223	    -23.25364413	      0.00000000	    -17.86299817	     -9.91440388	      3.56255866
      4.94000000	     -1.24931018	      5.50242887	     -8.55040648	      2.12941734	      0.69859444	     -0.32799000	     18.64252435	     -2.99965311	      3.51812687	    -70.06255792	      5.19238999	     -4.43002366	      0.00000000	      8.02777992	     13.87618148	     17.28204035	     -9.66221218	      4.58207958	    -25.71170599	      0.00000000	    -17.65906087	     -9.02867689	      3.26922196
